<?xml version="1.0" encoding="UTF-8" standalone="no"?>
<!DOCTYPE svg PUBLIC "-//W3C//DTD SVG 1.1//EN" "http://www.w3.org/Graphics/SVG/1.1/DTD/svg11.dtd">
<svg width="100%" height="100%" viewBox="0 0 1006 206" version="1.1" xmlns="http://www.w3.org/2000/svg" xmlns:xlink="http://www.w3.org/1999/xlink" xml:space="preserve" xmlns:serif="http://www.serif.com/" style="fill-rule:evenodd;clip-rule:evenodd;stroke-linejoin:round;stroke-miterlimit:2;">
    <g id="Artboard2" transform="matrix(1,0,0,1,27.7762,23.717)">
        <rect x="-27.776" y="-23.717" width="1005.99" height="205.781" style="fill:none;"/>
        <g transform="matrix(17.3571,0,0,17.7171,-7543.09,-4465.62)">
            <g transform="matrix(12,0,0,12,433.921,261.035)">
                <path d="M0.052,-0L0.3,-0C0.499,-0 0.536,-0.114 0.536,-0.198C0.536,-0.344 0.457,-0.367 0.404,-0.375L0.404,-0.377C0.472,-0.39 0.516,-0.455 0.516,-0.538C0.516,-0.657 0.435,-0.714 0.313,-0.714L0.052,-0.714L0.052,-0ZM0.22,-0.59L0.267,-0.59C0.328,-0.59 0.348,-0.55 0.348,-0.513C0.348,-0.462 0.324,-0.429 0.266,-0.429L0.22,-0.429L0.22,-0.59ZM0.22,-0.317L0.274,-0.317C0.326,-0.317 0.362,-0.287 0.362,-0.217C0.362,-0.167 0.339,-0.124 0.271,-0.124L0.22,-0.124L0.22,-0.317Z" style="fill:rgb(252,163,17);fill-rule:nonzero;"/>
            </g>
            <g transform="matrix(12,0,0,12,440.809,261.035)">
                <path d="M0.21,-0.357C0.21,-0.553 0.22,-0.616 0.286,-0.616C0.354,-0.616 0.364,-0.553 0.364,-0.357C0.364,-0.161 0.354,-0.098 0.286,-0.098C0.22,-0.098 0.21,-0.161 0.21,-0.357ZM0.538,-0.357C0.538,-0.555 0.525,-0.728 0.287,-0.728C0.066,-0.728 0.036,-0.584 0.036,-0.357C0.036,-0.13 0.066,0.014 0.287,0.014C0.525,0.014 0.538,-0.159 0.538,-0.357Z" style="fill:rgb(252,163,17);fill-rule:nonzero;"/>
            </g>
            <g transform="matrix(12,0,0,12,447.697,261.035)">
                <path d="M0.21,-0.357C0.21,-0.553 0.22,-0.616 0.286,-0.616C0.354,-0.616 0.364,-0.553 0.364,-0.357C0.364,-0.161 0.354,-0.098 0.286,-0.098C0.22,-0.098 0.21,-0.161 0.21,-0.357ZM0.538,-0.357C0.538,-0.555 0.525,-0.728 0.287,-0.728C0.066,-0.728 0.036,-0.584 0.036,-0.357C0.036,-0.13 0.066,0.014 0.287,0.014C0.525,0.014 0.538,-0.159 0.538,-0.357Z" style="fill:rgb(252,163,17);fill-rule:nonzero;"/>
            </g>
            <g transform="matrix(12,0,0,12,454.585,261.035)">
                <path d="M0.052,-0L0.22,-0L0.22,-0.2L0.265,-0.269L0.394,-0L0.583,-0L0.373,-0.406L0.56,-0.714L0.379,-0.714L0.222,-0.432L0.22,-0.432L0.22,-0.714L0.052,-0.714L0.052,-0Z" style="fill:rgb(252,163,17);fill-rule:nonzero;"/>
            </g>
            <g transform="matrix(12,0,0,12,461.473,261.035)">
                <rect x="0.055" y="-0.714" width="0.168" height="0.714" style="fill:rgb(252,163,17);"/>
            </g>
            <g transform="matrix(12,0,0,12,464.809,261.035)">
                <path d="M0.052,-0L0.22,-0L0.22,-0.299L0.45,-0.299L0.45,-0.435L0.22,-0.435L0.22,-0.578L0.465,-0.578L0.465,-0.714L0.052,-0.714L0.052,-0Z" style="fill:rgb(252,163,17);fill-rule:nonzero;"/>
            </g>
            <g transform="matrix(12,0,0,12,470.581,261.035)">
                <path d="M0.184,-0L0.352,-0L0.352,-0.281L0.533,-0.714L0.353,-0.714L0.271,-0.449L0.269,-0.449L0.189,-0.714L0.003,-0.714L0.184,-0.281L0.184,-0Z" style="fill:rgb(252,163,17);fill-rule:nonzero;"/>
            </g>
        </g>
        <g transform="matrix(0.404646,0,0,0.404646,752.8,-20.2207)">
            <rect x="0" y="88.533" width="250.667" height="347.733" style="fill:rgb(58,85,105);"/>
        </g>
        <g transform="matrix(0.404646,0,0,0.404646,752.8,-20.2207)">
            <rect x="250.667" y="88.533" width="250.667" height="347.733" style="fill:rgb(58,85,105);"/>
        </g>
        <g transform="matrix(0.404646,0,0,0.404646,752.8,-20.2207)">
            <path d="M221.867,65.067L23.467,65.067L23.467,402.134L218.667,402.134C218.667,402.134 250.667,406.401 250.667,436.267L250.667,93.867C250.667,77.867 237.867,65.067 221.867,65.067Z" style="fill:rgb(242,238,237);fill-rule:nonzero;"/>
        </g>
        <g transform="matrix(0.404646,0,0,0.404646,752.8,-20.2207)">
            <path d="M279.467,65.067L477.867,65.067L477.867,402.134L282.667,402.134C282.667,402.134 250.667,406.401 250.667,436.267L250.667,93.867C250.667,77.867 263.467,65.067 279.467,65.067Z" style="fill:rgb(226,225,224);fill-rule:nonzero;"/>
        </g>
        <g transform="matrix(0.404646,0,0,0.404646,752.8,-20.2207)">
            <rect x="64" y="107.733" width="144" height="9.6" style="fill:rgb(224,224,223);"/>
        </g>
        <g transform="matrix(0.404646,0,0,0.404646,752.8,-20.2207)">
            <rect x="64" y="140.8" width="61.867" height="9.6" style="fill:rgb(254,198,86);"/>
        </g>
        <g transform="matrix(0.404646,0,0,0.404646,752.8,-20.2207)">
            <rect x="64" y="173.867" width="61.867" height="9.6" style="fill:rgb(224,224,223);"/>
        </g>
        <g transform="matrix(0.404646,0,0,0.404646,752.8,-20.2207)">
            <rect x="64" y="206.933" width="61.867" height="9.6" style="fill:rgb(224,224,223);"/>
        </g>
        <g transform="matrix(0.404646,0,0,0.404646,752.8,-20.2207)">
            <rect x="64" y="241.067" width="144" height="9.6" style="fill:rgb(224,224,223);"/>
        </g>
        <g transform="matrix(0.404646,0,0,0.404646,752.8,-20.2207)">
            <rect x="64" y="274.133" width="144" height="9.6" style="fill:rgb(224,224,223);"/>
        </g>
        <g transform="matrix(0.404646,0,0,0.404646,752.8,-20.2207)">
            <rect x="64" y="307.2" width="144" height="9.6" style="fill:rgb(224,224,223);"/>
        </g>
        <g transform="matrix(0.404646,0,0,0.404646,752.8,-20.2207)">
            <rect x="64" y="340.267" width="144" height="9.6" style="fill:rgb(224,224,223);"/>
        </g>
        <g transform="matrix(0.404646,0,0,0.404646,752.8,-20.2207)">
            <rect x="149.333" y="140.8" width="57.6" height="75.733" style="fill:rgb(241,109,110);"/>
        </g>
        <g transform="matrix(0.404646,0,0,0.404646,752.8,-20.2207)">
            <rect x="292.267" y="107.733" width="144" height="9.6" style="fill:rgb(204,196,196);"/>
        </g>
        <g transform="matrix(0.404646,0,0,0.404646,752.8,-20.2207)">
            <rect x="292.267" y="241.067" width="144" height="9.6" style="fill:rgb(204,196,196);"/>
        </g>
        <g transform="matrix(0.404646,0,0,0.404646,752.8,-20.2207)">
            <rect x="292.267" y="340.267" width="144" height="9.6" style="fill:rgb(204,196,196);"/>
        </g>
        <g transform="matrix(0.404646,0,0,0.404646,752.8,-20.2207)">
            <rect x="377.6" y="140.8" width="57.6" height="75.733" style="fill:rgb(224,187,166);"/>
        </g>
        <g transform="matrix(0.404646,0,0,0.404646,752.8,-20.2207)">
            <rect x="292.267" y="268.8" width="144" height="53.333" style="fill:rgb(247,176,68);"/>
        </g>
        <g transform="matrix(0.404646,0,0,0.404646,752.8,-20.2207)">
            <rect x="292.267" y="140.8" width="57.6" height="75.733" style="fill:rgb(224,187,166);"/>
        </g>
    </g>
</svg>
