<?xml version="1.0" encoding="UTF-8" standalone="no"?>
<!DOCTYPE svg PUBLIC "-//W3C//DTD SVG 1.1//EN" "http://www.w3.org/Graphics/SVG/1.1/DTD/svg11.dtd">
<svg width="100%" height="100%" viewBox="0 0 512 512" version="1.1" xmlns="http://www.w3.org/2000/svg" xmlns:xlink="http://www.w3.org/1999/xlink" xml:space="preserve" xmlns:serif="http://www.serif.com/" style="fill-rule:evenodd;clip-rule:evenodd;stroke-linejoin:round;stroke-miterlimit:2;">
    <g>
        <g transform="matrix(0.575251,-0.215824,0.215824,0.575251,41.6386,105.038)">
            <path d="M128.961,0L145.668,189.99L128.961,381.79L127.231,381.79C96.791,381.79 72.111,406.47 72.111,436.9L72.111,36.06C72.111,16.14 88.261,0 108.171,0L128.961,0Z" style="fill:rgb(219,57,21);fill-rule:nonzero;"/>
        </g>
        <g transform="matrix(0.575251,-0.215824,0.215824,0.575251,41.6386,105.038)">
            <path d="M432.001,413.161L432.001,480.631L120.421,480.631C107.587,480.631 97.174,470.219 97.174,457.384L97.174,436.408C97.174,423.574 107.586,413.161 120.421,413.161L432.001,413.161Z" style="fill:rgb(217,236,253);fill-rule:nonzero;"/>
        </g>
        <g transform="matrix(0.575251,-0.215824,0.215824,0.575251,41.6386,105.038)">
            <path d="M432.001,446.897L432.001,480.632L120.421,480.632C107.587,480.632 97.174,470.22 97.174,457.385L97.174,446.897L432.001,446.897Z" style="fill:rgb(197,226,255);fill-rule:nonzero;"/>
        </g>
        <g transform="matrix(0.575251,-0.215824,0.215824,0.575251,41.6386,105.038)">
            <path d="M432.677,0L128.959,0L128.959,381.79L127.228,381.79C96.789,381.79 72.113,406.466 72.113,436.905L72.113,456.886C72.113,487.325 96.789,512.001 127.228,512.001L432.677,512.001C436.66,512.001 439.888,508.772 439.888,504.79L439.888,486.247C439.888,482.264 436.659,479.036 432.677,479.036L127.229,479.036C114.997,479.036 105.08,469.12 105.08,456.887L105.08,436.906C105.08,424.673 114.997,414.757 127.229,414.757L432.678,414.757C436.661,414.757 439.889,411.528 439.889,407.546L439.889,7.211C439.889,3.229 436.66,-0 432.677,-0Z" style="fill:rgb(252,90,54);fill-rule:nonzero;"/>
        </g>
        <g transform="matrix(0.575251,-0.215824,0.215824,0.575251,41.6386,105.038)">
            <path d="M127.229,381.789C96.79,381.789 72.114,406.465 72.114,436.904L72.114,456.885C72.114,487.324 96.79,512 127.229,512L432.678,512C436.661,512 439.889,508.771 439.889,504.789L439.889,486.246C439.889,482.263 436.66,479.035 432.678,479.035L127.229,479.035C114.997,479.035 105.08,469.119 105.08,456.886L105.08,436.905C105.08,424.672 114.996,414.756 127.229,414.756L432.678,414.756C436.661,414.756 439.889,411.527 439.889,407.545L439.889,381.79L127.229,381.79L127.229,381.789Z" style="fill:rgb(164,43,15);fill-rule:nonzero;"/>
        </g>
        <g transform="matrix(0.575251,-0.215824,0.215824,0.575251,41.6386,105.038)">
            <path d="M370.407,140.439L198.581,140.439C194.715,140.439 191.581,137.305 191.581,133.439L191.581,64.282C191.581,60.416 194.715,57.282 198.581,57.282L370.407,57.282C374.273,57.282 377.407,60.416 377.407,64.282L377.407,133.438C377.407,137.305 374.273,140.439 370.407,140.439Z" style="fill:rgb(255,200,94);fill-rule:nonzero;"/>
        </g>
        <g transform="matrix(0.575251,-0.215824,0.215824,0.575251,41.6386,105.038)">
            <g>
                <path d="M344.245,256.61L224.744,256.61C220.476,256.61 217.018,253.151 217.018,248.884C217.018,244.617 220.477,241.158 224.744,241.158L344.245,241.158C348.513,241.158 351.971,244.617 351.971,248.884C351.971,253.151 348.512,256.61 344.245,256.61Z" style="fill:rgb(217,236,253);fill-rule:nonzero;"/>
            </g>
        </g>
        <g transform="matrix(0.575251,-0.215824,0.215824,0.575251,41.6386,105.038)">
            <g>
                <path d="M344.245,293.508L224.744,293.508C220.476,293.508 217.018,290.049 217.018,285.782C217.018,281.515 220.477,278.056 224.744,278.056L344.245,278.056C348.513,278.056 351.971,281.515 351.971,285.782C351.971,290.049 348.512,293.508 344.245,293.508Z" style="fill:rgb(217,236,253);fill-rule:nonzero;"/>
            </g>
        </g>
    </g>
    <g transform="matrix(11.5895,0,0,11.8299,-5023.42,-2584.17)">
        <g transform="matrix(12,0,0,12,433.921,261.035)">
            <path d="M0.052,-0L0.3,-0C0.499,-0 0.536,-0.114 0.536,-0.198C0.536,-0.344 0.457,-0.367 0.404,-0.375L0.404,-0.377C0.472,-0.39 0.516,-0.455 0.516,-0.538C0.516,-0.657 0.435,-0.714 0.313,-0.714L0.052,-0.714L0.052,-0ZM0.22,-0.59L0.267,-0.59C0.328,-0.59 0.348,-0.55 0.348,-0.513C0.348,-0.462 0.324,-0.429 0.266,-0.429L0.22,-0.429L0.22,-0.59ZM0.22,-0.317L0.274,-0.317C0.326,-0.317 0.362,-0.287 0.362,-0.217C0.362,-0.167 0.339,-0.124 0.271,-0.124L0.22,-0.124L0.22,-0.317Z" style="fill:rgb(252,90,54);fill-rule:nonzero;"/>
        </g>
        <g transform="matrix(12,0,0,12,440.809,261.035)">
            <path d="M0.21,-0.357C0.21,-0.553 0.22,-0.616 0.286,-0.616C0.354,-0.616 0.364,-0.553 0.364,-0.357C0.364,-0.161 0.354,-0.098 0.286,-0.098C0.22,-0.098 0.21,-0.161 0.21,-0.357ZM0.538,-0.357C0.538,-0.555 0.525,-0.728 0.287,-0.728C0.066,-0.728 0.036,-0.584 0.036,-0.357C0.036,-0.13 0.066,0.014 0.287,0.014C0.525,0.014 0.538,-0.159 0.538,-0.357Z" style="fill:rgb(252,90,54);fill-rule:nonzero;"/>
        </g>
        <g transform="matrix(12,0,0,12,447.697,261.035)">
            <path d="M0.21,-0.357C0.21,-0.553 0.22,-0.616 0.286,-0.616C0.354,-0.616 0.364,-0.553 0.364,-0.357C0.364,-0.161 0.354,-0.098 0.286,-0.098C0.22,-0.098 0.21,-0.161 0.21,-0.357ZM0.538,-0.357C0.538,-0.555 0.525,-0.728 0.287,-0.728C0.066,-0.728 0.036,-0.584 0.036,-0.357C0.036,-0.13 0.066,0.014 0.287,0.014C0.525,0.014 0.538,-0.159 0.538,-0.357Z" style="fill:rgb(252,90,54);fill-rule:nonzero;"/>
        </g>
        <g transform="matrix(12,0,0,12,454.585,261.035)">
            <path d="M0.052,-0L0.22,-0L0.22,-0.2L0.265,-0.269L0.394,-0L0.583,-0L0.373,-0.406L0.56,-0.714L0.379,-0.714L0.222,-0.432L0.22,-0.432L0.22,-0.714L0.052,-0.714L0.052,-0Z" style="fill:rgb(252,90,54);fill-rule:nonzero;"/>
        </g>
        <g transform="matrix(12,0,0,12,461.473,261.035)">
            <rect x="0.055" y="-0.714" width="0.168" height="0.714" style="fill:rgb(252,90,54);fill-rule:nonzero;"/>
        </g>
        <g transform="matrix(12,0,0,12,464.809,261.035)">
            <path d="M0.052,-0L0.22,-0L0.22,-0.299L0.45,-0.299L0.45,-0.435L0.22,-0.435L0.22,-0.578L0.465,-0.578L0.465,-0.714L0.052,-0.714L0.052,-0Z" style="fill:rgb(252,90,54);fill-rule:nonzero;"/>
        </g>
        <g transform="matrix(12,0,0,12,470.581,261.035)">
            <path d="M0.184,-0L0.352,-0L0.352,-0.281L0.533,-0.714L0.353,-0.714L0.271,-0.449L0.269,-0.449L0.189,-0.714L0.003,-0.714L0.184,-0.281L0.184,-0Z" style="fill:rgb(252,90,54);fill-rule:nonzero;"/>
        </g>
    </g>
</svg>
